<svg width="current" height="current" viewBox="0 0 24 24" fill="none" xmlns="http://www.w3.org/2000/svg">
<path d="M8.49431 8.32076L8.63894 9.31024L8.63894 9.31024L8.49431 8.32076ZM8.78872 8.25661L8.36705 7.34985L8.36705 7.34985L8.78872 8.25661ZM9.09597 7.88327L8.19927 7.44064L9.09597 7.88327ZM8.94419 8.14356L9.67678 8.82422L9.67678 8.82422L8.94419 8.14356ZM3.16056 10.4004L2.46283 11.1167L2.46283 11.1167L3.16056 10.4004ZM2.57853 9.68376L3.56992 9.55284L2.57853 9.68376ZM3.60304 9.03569L3.45842 8.0462L3.45842 8.0462L3.60304 9.03569ZM2.71125 9.27442L1.98531 8.58667L1.98531 8.58667L2.71125 9.27442ZM6.92889 14.5547L5.94328 14.3857L6.92889 14.5547ZM6.95912 14.2545L7.95185 14.1341L6.95912 14.2545ZM6.69859 13.8464L7.39632 13.13L7.39632 13.13L6.69859 13.8464ZM6.89961 14.0714L7.77331 13.585L7.77331 13.585L6.89961 14.0714ZM7.25492 20.2654L7.72037 21.1505L7.72037 21.1505L7.25492 20.2654ZM6.39297 20.5975L6.2107 21.5807L6.39297 20.5975ZM6.09407 19.4221L7.07968 19.5911L6.09407 19.4221ZM6.04474 20.3445L5.166 20.8218L6.04474 20.3445ZM12.3724 17.9658L11.9069 18.8509L11.9069 18.8509L12.3724 17.9658ZM12.0962 17.8443L12.2887 16.863L12.0962 17.8443ZM11.6277 17.9658L11.1622 17.0807L11.1622 17.0807L11.6277 17.9658ZM11.9038 17.8443L12.0962 18.8256L11.9038 17.8443ZM17.906 19.4221L18.8916 19.2531L18.8916 19.2531L17.906 19.4221ZM17.9553 20.3445L17.0766 19.8672L17.9553 20.3445ZM16.7451 20.2654L17.2106 19.3803L16.7451 20.2654ZM17.6071 20.5975L17.4248 19.6142L17.6071 20.5975ZM17.3014 13.8464L17.9992 14.5628L17.9992 14.5628L17.3014 13.8464ZM17.1004 14.0714L17.9741 14.5579L17.1004 14.0714ZM17.0711 14.5547L16.0855 14.7238L16.0855 14.7238L17.0711 14.5547ZM17.0409 14.2545L16.0482 14.1341L17.0409 14.2545ZM20.397 9.03569L20.5416 8.0462L20.5416 8.0462L20.397 9.03569ZM21.2888 9.27442L22.0147 8.58667L22.0147 8.58667L21.2888 9.27442ZM20.8395 10.4004L20.1417 9.68401L20.1417 9.68401L20.8395 10.4004ZM21.4215 9.68376L20.4301 9.55284L21.4215 9.68376ZM14.9041 7.88327L15.8008 7.44064L15.8008 7.44064L14.9041 7.88327ZM15.0558 8.14356L14.3232 8.82422L14.3232 8.82422L15.0558 8.14356ZM15.5057 8.32076L15.3611 9.31024L15.3611 9.31024L15.5057 8.32076ZM15.2113 8.25661L15.633 7.34985L15.633 7.34985L15.2113 8.25661ZM12.7174 3.4533L11.8207 3.89592L11.8207 3.89592L12.7174 3.4533ZM12.2152 2.6783L12.6456 1.77565L12.2152 2.6783ZM11.2827 3.4533L12.1794 3.89592L12.1794 3.89592L11.2827 3.4533ZM11.7848 2.6783L11.3545 1.77565L11.7848 2.6783ZM11.8207 3.89592L14.0074 8.32589L15.8008 7.44064L13.6141 3.01068L11.8207 3.89592ZM15.3611 9.31024L20.2524 10.0252L20.5416 8.0462L15.6504 7.33127L15.3611 9.31024ZM20.1417 9.68401L16.6037 13.13L17.9992 14.5628L21.5372 11.1167L20.1417 9.68401ZM16.0855 14.7238L16.9204 19.5911L18.8916 19.2531L18.0568 14.3857L16.0855 14.7238ZM17.2106 19.3803L12.8378 17.0807L11.9069 18.8509L16.2797 21.1505L17.2106 19.3803ZM11.1622 17.0807L6.78947 19.3803L7.72037 21.1505L12.0931 18.8509L11.1622 17.0807ZM7.07968 19.5911L7.91449 14.7238L5.94328 14.3857L5.10847 19.2531L7.07968 19.5911ZM7.39632 13.13L3.85829 9.68401L2.46283 11.1167L6.00085 14.5628L7.39632 13.13ZM3.74767 10.0252L8.63894 9.31024L8.34968 7.33127L3.45842 8.0462L3.74767 10.0252ZM9.99268 8.32589L12.1794 3.89592L10.3859 3.01068L8.19927 7.44064L9.99268 8.32589ZM8.63894 9.31024C8.73066 9.29684 8.98044 9.27029 9.21038 9.16336L8.36705 7.34985C8.38171 7.34304 8.396 7.33707 8.40965 7.33191C8.42322 7.32678 8.43527 7.32278 8.44534 7.31972C8.46485 7.31379 8.47649 7.31154 8.47461 7.31192C8.47388 7.31207 8.47089 7.31266 8.46483 7.31372C8.45876 7.31478 8.45067 7.31612 8.43975 7.31784C8.42883 7.31956 8.41617 7.32148 8.40091 7.32375C8.38555 7.32603 8.36897 7.32845 8.34968 7.33127L8.63894 9.31024ZM8.19927 7.44064C8.19064 7.45812 8.18322 7.47315 8.17632 7.48705C8.16945 7.50087 8.16372 7.51232 8.15872 7.52218C8.15372 7.53204 8.14995 7.53932 8.14707 7.54477C8.14419 7.55021 8.1427 7.55288 8.14234 7.55352C8.1414 7.55519 8.14713 7.54481 8.15879 7.52808C8.1648 7.51945 8.17232 7.50922 8.18139 7.49789C8.19051 7.48649 8.20058 7.47474 8.21159 7.4629L9.67678 8.82422C9.84939 8.63844 9.95165 8.40901 9.99268 8.32589L8.19927 7.44064ZM9.21038 9.16336C9.38632 9.08154 9.54471 8.96637 9.67678 8.82422L8.21159 7.4629C8.25561 7.41552 8.30841 7.37713 8.36705 7.34985L9.21038 9.16336ZM3.85829 9.68401C3.76328 9.59146 3.68829 9.51839 3.62516 9.4548C3.56152 9.39069 3.52249 9.34874 3.49806 9.32018C3.47237 9.29016 3.47989 9.29452 3.49708 9.32493C3.51662 9.35948 3.5548 9.43838 3.56992 9.55284L1.58713 9.81468C1.63832 10.2023 1.85617 10.4776 1.97837 10.6204C2.11113 10.7756 2.29066 10.949 2.46283 11.1167L3.85829 9.68401ZM3.45842 8.0462C3.22061 8.08096 2.97345 8.11608 2.77489 8.16383C2.59213 8.20777 2.25422 8.30282 1.98531 8.58667L3.43719 9.96218C3.3578 10.046 3.28057 10.0875 3.24448 10.104C3.21271 10.1185 3.20406 10.1176 3.24249 10.1084C3.27903 10.0996 3.33525 10.0885 3.4244 10.074C3.51283 10.0595 3.61643 10.0444 3.74767 10.0252L3.45842 8.0462ZM3.56992 9.55284C3.58966 9.70232 3.54089 9.85272 3.43719 9.96218L1.98531 8.58667C1.67422 8.91503 1.52791 9.36625 1.58713 9.81468L3.56992 9.55284ZM7.91449 14.7238C7.93019 14.6323 7.98242 14.3862 7.95185 14.1341L5.96639 14.3749C5.96444 14.3588 5.96319 14.3433 5.96251 14.3287C5.96183 14.3142 5.96176 14.3015 5.96196 14.291C5.96237 14.2706 5.96383 14.2588 5.96361 14.2607C5.96353 14.2614 5.96316 14.2645 5.96229 14.2706C5.96141 14.2767 5.96018 14.2848 5.95843 14.2957C5.95668 14.3067 5.95458 14.3193 5.95201 14.3346C5.94941 14.3499 5.94658 14.3664 5.94328 14.3857L7.91449 14.7238ZM6.00085 14.5628C6.01484 14.5764 6.02686 14.5881 6.03797 14.599C6.04902 14.6098 6.05815 14.6188 6.066 14.6266C6.07385 14.6344 6.07962 14.6402 6.08392 14.6447C6.08821 14.6491 6.0903 14.6513 6.0908 14.6519C6.0921 14.6533 6.08399 14.6446 6.07166 14.6284C6.0653 14.62 6.05788 14.6096 6.04989 14.5975C6.04186 14.5853 6.03378 14.5721 6.02591 14.5579L7.77331 13.585C7.64977 13.3631 7.46281 13.1948 7.39632 13.13L6.00085 14.5628ZM7.95185 14.1341C7.92846 13.9412 7.86782 13.7547 7.77331 13.585L6.02591 14.5579C5.9944 14.5013 5.97419 14.4392 5.96639 14.3749L7.95185 14.1341ZM6.78947 19.3803C6.67201 19.4421 6.57926 19.4908 6.49921 19.5312C6.41851 19.572 6.3665 19.5961 6.33174 19.6105C6.2952 19.6257 6.30165 19.6199 6.33588 19.613C6.37476 19.6051 6.46166 19.5932 6.57524 19.6142L6.2107 21.5807C6.59531 21.652 6.92459 21.5299 7.09823 21.4578C7.28693 21.3795 7.50752 21.2624 7.72037 21.1505L6.78947 19.3803ZM5.10847 19.2531C5.06781 19.4901 5.02461 19.7361 5.00848 19.9398C4.99364 20.1272 4.9793 20.4781 5.166 20.8218L6.92348 19.8672C6.97862 19.9687 6.99414 20.055 6.99866 20.0944C7.00263 20.1291 6.99912 20.1371 7.00224 20.0976C7.00521 20.0601 7.01211 20.0032 7.02589 19.9138C7.03957 19.8252 7.05725 19.722 7.07968 19.5911L5.10847 19.2531ZM6.57524 19.6142C6.72353 19.6417 6.85149 19.7347 6.92348 19.8672L5.166 20.8218C5.38195 21.2194 5.76583 21.4982 6.2107 21.5807L6.57524 19.6142ZM12.8378 17.0807C12.7557 17.0375 12.5378 16.9118 12.2887 16.863L11.9038 18.8256C11.8879 18.8225 11.8728 18.8189 11.8587 18.815C11.8447 18.8112 11.8326 18.8073 11.8227 18.8039C11.8034 18.7972 11.7926 18.7921 11.7944 18.7929C11.795 18.7932 11.7978 18.7945 11.8034 18.7972C11.8089 18.8 11.8162 18.8036 11.8261 18.8087C11.8359 18.8137 11.8473 18.8196 11.861 18.8268C11.8748 18.834 11.8897 18.8418 11.9069 18.8509L12.8378 17.0807ZM12.0931 18.8509C12.1104 18.8418 12.1252 18.834 12.139 18.8268C12.1527 18.8196 12.1641 18.8137 12.1739 18.8087C12.1838 18.8036 12.1911 18.8 12.1967 18.7972C12.2022 18.7945 12.205 18.7932 12.2057 18.7929C12.2074 18.7921 12.1967 18.7972 12.1774 18.8039C12.1674 18.8073 12.1553 18.8112 12.1413 18.815C12.1272 18.8189 12.1121 18.8225 12.0962 18.8256L11.7113 16.863C11.4622 16.9118 11.2443 17.0375 11.1622 17.0807L12.0931 18.8509ZM12.2887 16.863C12.0981 16.8256 11.902 16.8256 11.7113 16.863L12.0962 18.8256C12.0327 18.838 11.9673 18.838 11.9038 18.8256L12.2887 16.863ZM16.9204 19.5911C16.9428 19.722 16.9605 19.8252 16.9741 19.9138C16.9879 20.0032 16.9948 20.0601 16.9978 20.0976C17.0009 20.1371 16.9974 20.1291 17.0014 20.0944C17.0059 20.055 17.0214 19.9687 17.0766 19.8672L18.834 20.8218C19.0207 20.4781 19.0064 20.1272 18.9916 19.9398C18.9754 19.7361 18.9322 19.4901 18.8916 19.2531L16.9204 19.5911ZM16.2797 21.1505C16.4925 21.2624 16.7131 21.3795 16.9018 21.4578C17.0754 21.5299 17.4047 21.652 17.7893 21.5807L17.4248 19.6142C17.5384 19.5932 17.6253 19.6051 17.6642 19.613C17.6984 19.6199 17.7048 19.6257 17.6683 19.6105C17.6335 19.5961 17.5815 19.572 17.5008 19.5312C17.4208 19.4908 17.328 19.4421 17.2106 19.3803L16.2797 21.1505ZM17.0766 19.8672C17.1485 19.7347 17.2765 19.6417 17.4248 19.6142L17.7893 21.5807C18.2342 21.4982 18.6181 21.2194 18.834 20.8218L17.0766 19.8672ZM16.6037 13.13C16.5372 13.1948 16.3503 13.3631 16.2267 13.585L17.9741 14.5579C17.9663 14.5721 17.9582 14.5853 17.9501 14.5975C17.9422 14.6096 17.9347 14.62 17.9284 14.6284C17.916 14.6446 17.9079 14.6533 17.9092 14.6519C17.9097 14.6513 17.9118 14.6491 17.9161 14.6447C17.9204 14.6402 17.9262 14.6344 17.934 14.6266C17.9419 14.6188 17.951 14.6098 17.9621 14.599C17.9732 14.5881 17.9852 14.5764 17.9992 14.5628L16.6037 13.13ZM18.0568 14.3857C18.0535 14.3664 18.0506 14.3499 18.048 14.3346C18.0455 14.3193 18.0434 14.3067 18.0416 14.2957C18.0399 14.2848 18.0386 14.2767 18.0377 14.2706C18.0369 14.2645 18.0365 14.2614 18.0364 14.2607C18.0362 14.2588 18.0377 14.2706 18.0381 14.291C18.0383 14.3015 18.0382 14.3142 18.0375 14.3287C18.0368 14.3433 18.0356 14.3588 18.0336 14.3749L16.0482 14.1341C16.0176 14.3862 16.0698 14.6323 16.0855 14.7238L18.0568 14.3857ZM16.2267 13.585C16.1322 13.7547 16.0716 13.9412 16.0482 14.1341L18.0336 14.3749C18.0258 14.4392 18.0056 14.5013 17.9741 14.5579L16.2267 13.585ZM20.2524 10.0252C20.3836 10.0444 20.4872 10.0595 20.5756 10.074C20.6648 10.0885 20.721 10.0996 20.7575 10.1084C20.796 10.1176 20.7873 10.1185 20.7556 10.104C20.7195 10.0875 20.6422 10.046 20.5628 9.96218L22.0147 8.58667C21.7458 8.30283 21.4079 8.20778 21.2251 8.16383C21.0266 8.11608 20.7794 8.08096 20.5416 8.0462L20.2524 10.0252ZM21.5372 11.1167C21.7094 10.949 21.8889 10.7756 22.0217 10.6204C22.1439 10.4776 22.3617 10.2023 22.4129 9.81468L20.4301 9.55284C20.4452 9.43838 20.4834 9.35948 20.503 9.32493C20.5201 9.29452 20.5277 9.29016 20.502 9.32019C20.4775 9.34874 20.4385 9.39069 20.3749 9.4548C20.3117 9.51839 20.2368 9.59146 20.1417 9.68401L21.5372 11.1167ZM20.5628 9.96218C20.4591 9.85272 20.4104 9.70232 20.4301 9.55284L22.4129 9.81468C22.4721 9.36624 22.3258 8.91503 22.0147 8.58667L20.5628 9.96218ZM14.0074 8.32589C14.0484 8.40901 14.1506 8.63844 14.3232 8.82422L15.7884 7.4629C15.7995 7.47474 15.8095 7.48649 15.8186 7.49789C15.8277 7.50922 15.8352 7.51945 15.8412 7.52808C15.8529 7.54481 15.8586 7.55519 15.8577 7.55352C15.8573 7.55288 15.8558 7.55021 15.853 7.54477C15.8501 7.53932 15.8463 7.53204 15.8413 7.52219C15.8363 7.51232 15.8306 7.50087 15.8237 7.48705C15.8168 7.47315 15.8094 7.45812 15.8008 7.44064L14.0074 8.32589ZM15.6504 7.33127C15.6311 7.32845 15.6145 7.32603 15.5991 7.32375C15.5839 7.32148 15.5712 7.31956 15.5603 7.31784C15.5494 7.31612 15.5413 7.31478 15.5352 7.31372C15.5291 7.31266 15.5261 7.31206 15.5254 7.31192C15.5235 7.31154 15.5352 7.31379 15.5547 7.31972C15.5648 7.32278 15.5768 7.32678 15.5904 7.33191C15.604 7.33707 15.6183 7.34304 15.633 7.34985L14.7897 9.16336C15.0196 9.27029 15.2694 9.29684 15.3611 9.31024L15.6504 7.33127ZM14.3232 8.82422C14.4553 8.96637 14.6137 9.08154 14.7897 9.16336L15.633 7.34985C15.6916 7.37713 15.7444 7.41552 15.7884 7.4629L14.3232 8.82422ZM13.6141 3.01068C13.5077 2.79509 13.398 2.57073 13.2914 2.39652C13.1932 2.2362 12.9986 1.94396 12.6456 1.77565L11.7848 3.58095C11.6806 3.53124 11.6173 3.47055 11.5905 3.44131C11.5668 3.41558 11.565 3.40709 11.5857 3.44082C11.6053 3.47289 11.6332 3.52299 11.6745 3.60333C11.7156 3.68304 11.7619 3.77695 11.8207 3.89592L13.6141 3.01068ZM12.1794 3.89592C12.2381 3.77695 12.2845 3.68304 12.3255 3.60333C12.3668 3.52299 12.3947 3.47289 12.4144 3.44082C12.435 3.40709 12.4332 3.41558 12.4096 3.44131C12.3827 3.47055 12.3195 3.53124 12.2152 3.58095L11.3545 1.77565C11.0014 1.94396 10.8068 2.2362 10.7086 2.39652C10.602 2.57073 10.4924 2.79509 10.3859 3.01068L12.1794 3.89592ZM12.6456 1.77565C12.2372 1.58095 11.7628 1.58095 11.3545 1.77565L12.2152 3.58095C12.0791 3.64585 11.9209 3.64585 11.7848 3.58095L12.6456 1.77565Z" fill="currentColor"/>
</svg>
